# xmcd CD database file
#
# Track frame offsets:
#	150
#	18495
#	38760
#
# Disc length: 758 seconds
#
# Revision: 11
# Processed by: cddbd v1.5.2PL0 Copyright (c) Steve Scherf et al.
# Submitted via: CDex 1.70beta2
#
DISCID=1a02f403
DTITLE=倉木麻衣 - Time after time ～花舞う街で～
DYEAR=2003
DGENRE=JPop
TTITLE0=Time after time ～花舞う街で～
TTITLE1=Natural
TTITLE2=Time after time ～花舞う街で～ (Instrumental)
EXTD=YEAR: 2003
EXTT0=
EXTT1=
EXTT2=
PLAYORDER=
